<mxfile host="app.diagrams.net" modified="2024-08-13T09:11:34.179Z" agent="Mozilla/5.0 (Windows NT 10.0; Win64; x64) AppleWebKit/537.36 (KHTML, like Gecko) Chrome/126.0.0.0 Safari/537.36" version="24.6.4" etag="ZUbQ2WzqkLhVfKWxZSGD" type="github">
  <diagram name="第 1 页" id="uE0uv-6pzj0NgiI1sNcN">
    <mxGraphModel>
      <root>
        <mxCell id="0" />
        <mxCell id="1" parent="0" />
      </root>
    </mxGraphModel>
  </diagram>
</mxfile>
